{
    "asset" : {
        "generator" : "Khronos glTF Blender I/O v1.8.19",
        "version" : "2.0"
    },
    "scene" : 0,
    "scenes" : [
        {
            "name" : "Scene",
            "nodes" : [
                0,
                1,
                2,
                3,
                4,
                5,
                6,
                7,
                8,
                9,
                10
            ]
        }
    ],
    "nodes" : [
        {
            "name" : "Target.001",
            "rotation" : [
                0.1721758395433426,
                0.5118111968040466,
                -0.10147709399461746,
                0.8355280756950378
            ],
            "translation" : [
                1.6510344743728638,
                -0.17527535557746887,
                0.6864683032035828
            ]
        },
        {
            "mesh" : 0,
            "name" : "Object.010",
            "rotation" : [
                0.1721758395433426,
                0.5118111968040466,
                -0.10147709399461746,
                0.8355280756950378
            ]
        },
        {
            "mesh" : 1,
            "name" : "Object.011",
            "rotation" : [
                0.1721758395433426,
                0.5118111968040466,
                -0.10147709399461746,
                0.8355280756950378
            ]
        },
        {
            "mesh" : 2,
            "name" : "Object.012",
            "rotation" : [
                0.1721758395433426,
                0.5118111968040466,
                -0.10147709399461746,
                0.8355280756950378
            ]
        },
        {
            "mesh" : 3,
            "name" : "Object.013",
            "rotation" : [
                0.1721758395433426,
                0.5118111968040466,
                -0.10147709399461746,
                0.8355280756950378
            ]
        },
        {
            "mesh" : 4,
            "name" : "Object.014",
            "rotation" : [
                0.1721758395433426,
                0.5118111968040466,
                -0.10147709399461746,
                0.8355280756950378
            ]
        },
        {
            "mesh" : 5,
            "name" : "Object.015",
            "rotation" : [
                0.1721758395433426,
                0.5118111968040466,
                -0.10147709399461746,
                0.8355280756950378
            ]
        },
        {
            "mesh" : 6,
            "name" : "Object.016",
            "rotation" : [
                0.1721758395433426,
                0.5118111968040466,
                -0.10147709399461746,
                0.8355280756950378
            ]
        },
        {
            "mesh" : 7,
            "name" : "Object.017",
            "rotation" : [
                0.1721758395433426,
                0.5118111968040466,
                -0.10147709399461746,
                0.8355280756950378
            ]
        },
        {
            "mesh" : 8,
            "name" : "Object.018",
            "rotation" : [
                0.1721758395433426,
                0.5118111968040466,
                -0.10147709399461746,
                0.8355280756950378
            ]
        },
        {
            "mesh" : 9,
            "name" : "Object.019",
            "rotation" : [
                0.1721758395433426,
                0.5118111968040466,
                -0.10147709399461746,
                0.8355280756950378
            ]
        }
    ],
    "materials" : [
        {
            "doubleSided" : true,
            "name" : "Material.041",
            "pbrMetallicRoughness" : {
                "baseColorFactor" : [
                    0.26700401306152344,
                    0.004873999860137701,
                    0.3294149935245514,
                    1
                ],
                "metallicFactor" : 0,
                "roughnessFactor" : 0.4000000059604645
            }
        },
        {
            "doubleSided" : true,
            "name" : "Material.042",
            "pbrMetallicRoughness" : {
                "baseColorFactor" : [
                    0.2826229929924011,
                    0.14092600345611572,
                    0.45751699805259705,
                    1
                ],
                "metallicFactor" : 0,
                "roughnessFactor" : 0.4000000059604645
            }
        },
        {
            "doubleSided" : true,
            "name" : "Material.043",
            "pbrMetallicRoughness" : {
                "baseColorFactor" : [
                    0.2539350092411041,
                    0.2652539908885956,
                    0.5299829840660095,
                    1
                ],
                "metallicFactor" : 0,
                "roughnessFactor" : 0.4000000059604645
            }
        },
        {
            "doubleSided" : true,
            "name" : "Material.044",
            "pbrMetallicRoughness" : {
                "baseColorFactor" : [
                    0.20675599575042725,
                    0.37175801396369934,
                    0.5531169772148132,
                    1
                ],
                "metallicFactor" : 0,
                "roughnessFactor" : 0.4000000059604645
            }
        },
        {
            "doubleSided" : true,
            "name" : "Material.045",
            "pbrMetallicRoughness" : {
                "baseColorFactor" : [
                    0.16362500190734863,
                    0.4711329936981201,
                    0.5581480264663696,
                    1
                ],
                "metallicFactor" : 0,
                "roughnessFactor" : 0.4000000059604645
            }
        },
        {
            "doubleSided" : true,
            "name" : "Material.046",
            "pbrMetallicRoughness" : {
                "baseColorFactor" : [
                    0.12756800651550293,
                    0.5669490098953247,
                    0.5505560040473938,
                    1
                ],
                "metallicFactor" : 0,
                "roughnessFactor" : 0.4000000059604645
            }
        },
        {
            "doubleSided" : true,
            "name" : "Material.047",
            "pbrMetallicRoughness" : {
                "baseColorFactor" : [
                    0.1346919983625412,
                    0.6586359739303589,
                    0.5176489949226379,
                    1
                ],
                "metallicFactor" : 0,
                "roughnessFactor" : 0.4000000059604645
            }
        },
        {
            "doubleSided" : true,
            "name" : "Material.048",
            "pbrMetallicRoughness" : {
                "baseColorFactor" : [
                    0.26694101095199585,
                    0.7487509846687317,
                    0.4405730068683624,
                    1
                ],
                "metallicFactor" : 0,
                "roughnessFactor" : 0.4000000059604645
            }
        },
        {
            "doubleSided" : true,
            "name" : "Material.049",
            "pbrMetallicRoughness" : {
                "baseColorFactor" : [
                    0.4775039851665497,
                    0.8214439749717712,
                    0.3181949853897095,
                    1
                ],
                "metallicFactor" : 0,
                "roughnessFactor" : 0.4000000059604645
            }
        },
        {
            "doubleSided" : true,
            "name" : "Material.050",
            "pbrMetallicRoughness" : {
                "baseColorFactor" : [
                    0.7413880228996277,
                    0.8734490275382996,
                    0.14956100285053253,
                    1
                ],
                "metallicFactor" : 0,
                "roughnessFactor" : 0.4000000059604645
            }
        }
    ],
    "meshes" : [
        {
            "name" : "ObjectMesh.040",
            "primitives" : [
                {
                    "attributes" : {
                        "POSITION" : 0,
                        "NORMAL" : 1
                    },
                    "indices" : 2,
                    "material" : 0
                }
            ]
        },
        {
            "name" : "ObjectMesh.041",
            "primitives" : [
                {
                    "attributes" : {
                        "POSITION" : 3,
                        "NORMAL" : 4
                    },
                    "indices" : 5,
                    "material" : 1
                }
            ]
        },
        {
            "name" : "ObjectMesh.042",
            "primitives" : [
                {
                    "attributes" : {
                        "POSITION" : 6,
                        "NORMAL" : 7
                    },
                    "indices" : 8,
                    "material" : 2
                }
            ]
        },
        {
            "name" : "ObjectMesh.043",
            "primitives" : [
                {
                    "attributes" : {
                        "POSITION" : 9,
                        "NORMAL" : 10
                    },
                    "indices" : 11,
                    "material" : 3
                }
            ]
        },
        {
            "name" : "ObjectMesh.044",
            "primitives" : [
                {
                    "attributes" : {
                        "POSITION" : 12,
                        "NORMAL" : 13
                    },
                    "indices" : 14,
                    "material" : 4
                }
            ]
        },
        {
            "name" : "ObjectMesh.045",
            "primitives" : [
                {
                    "attributes" : {
                        "POSITION" : 15,
                        "NORMAL" : 16
                    },
                    "indices" : 17,
                    "material" : 5
                }
            ]
        },
        {
            "name" : "ObjectMesh.046",
            "primitives" : [
                {
                    "attributes" : {
                        "POSITION" : 18,
                        "NORMAL" : 19
                    },
                    "indices" : 20,
                    "material" : 6
                }
            ]
        },
        {
            "name" : "ObjectMesh.047",
            "primitives" : [
                {
                    "attributes" : {
                        "POSITION" : 21,
                        "NORMAL" : 22
                    },
                    "indices" : 23,
                    "material" : 7
                }
            ]
        },
        {
            "name" : "ObjectMesh.048",
            "primitives" : [
                {
                    "attributes" : {
                        "POSITION" : 24,
                        "NORMAL" : 25
                    },
                    "indices" : 26,
                    "material" : 8
                }
            ]
        },
        {
            "name" : "ObjectMesh.049",
            "primitives" : [
                {
                    "attributes" : {
                        "POSITION" : 27,
                        "NORMAL" : 28
                    },
                    "indices" : 29,
                    "material" : 9
                }
            ]
        }
    ],
    "accessors" : [
        {
            "bufferView" : 0,
            "componentType" : 5126,
            "count" : 72336,
            "max" : [
                4.884782791137695,
                0.20812278985977173,
                3.135960102081299
            ],
            "min" : [
                -5.205217361450195,
                0.03588336706161499,
                -3.317676544189453
            ],
            "type" : "VEC3"
        },
        {
            "bufferView" : 1,
            "componentType" : 5126,
            "count" : 72336,
            "type" : "VEC3"
        },
        {
            "bufferView" : 2,
            "componentType" : 5125,
            "count" : 108504,
            "type" : "SCALAR"
        },
        {
            "bufferView" : 3,
            "componentType" : 5126,
            "count" : 5640,
            "max" : [
                4.581752300262451,
                0.29975226521492004,
                2.832929849624634
            ],
            "min" : [
                -5.205217361450195,
                0.03588335961103439,
                -2.9136359691619873
            ],
            "type" : "VEC3"
        },
        {
            "bufferView" : 4,
            "componentType" : 5126,
            "count" : 5640,
            "type" : "VEC3"
        },
        {
            "bufferView" : 5,
            "componentType" : 5123,
            "count" : 8460,
            "type" : "SCALAR"
        },
        {
            "bufferView" : 6,
            "componentType" : 5126,
            "count" : 2712,
            "max" : [
                4.1777119636535645,
                0.40205448865890503,
                2.9339399337768555
            ],
            "min" : [
                -5.003197193145752,
                0.03588335961103439,
                -2.9136359691619873
            ],
            "type" : "VEC3"
        },
        {
            "bufferView" : 7,
            "componentType" : 5126,
            "count" : 2712,
            "type" : "VEC3"
        },
        {
            "bufferView" : 8,
            "componentType" : 5123,
            "count" : 4068,
            "type" : "SCALAR"
        },
        {
            "bufferView" : 9,
            "componentType" : 5126,
            "count" : 1440,
            "max" : [
                4.076702117919922,
                0.5240739583969116,
                2.428889274597168
            ],
            "min" : [
                -4.801177024841309,
                0.0358833447098732,
                -2.8126258850097656
            ],
            "type" : "VEC3"
        },
        {
            "bufferView" : 10,
            "componentType" : 5126,
            "count" : 1440,
            "type" : "VEC3"
        },
        {
            "bufferView" : 11,
            "componentType" : 5123,
            "count" : 2160,
            "type" : "SCALAR"
        },
        {
            "bufferView" : 12,
            "componentType" : 5126,
            "count" : 768,
            "max" : [
                3.2686212062835693,
                0.6601197719573975,
                2.9339399337768555
            ],
            "min" : [
                -3.690065860748291,
                0.0358833447098732,
                -2.711615800857544
            ],
            "type" : "VEC3"
        },
        {
            "bufferView" : 13,
            "componentType" : 5126,
            "count" : 768,
            "type" : "VEC3"
        },
        {
            "bufferView" : 14,
            "componentType" : 5123,
            "count" : 1152,
            "type" : "SCALAR"
        },
        {
            "bufferView" : 15,
            "componentType" : 5126,
            "count" : 720,
            "max" : [
                4.076702117919922,
                0.841922402381897,
                1.6208082437515259
            ],
            "min" : [
                -4.700166702270508,
                0.0358833447098732,
                -2.9136359691619873
            ],
            "type" : "VEC3"
        },
        {
            "bufferView" : 16,
            "componentType" : 5126,
            "count" : 720,
            "type" : "VEC3"
        },
        {
            "bufferView" : 17,
            "componentType" : 5123,
            "count" : 1080,
            "type" : "SCALAR"
        },
        {
            "bufferView" : 18,
            "componentType" : 5126,
            "count" : 432,
            "max" : [
                1.450439214706421,
                1.0625712871551514,
                2.125859022140503
            ],
            "min" : [
                -4.700166702270508,
                0.0358833447098732,
                -1.4994946718215942
            ],
            "type" : "VEC3"
        },
        {
            "bufferView" : 19,
            "componentType" : 5126,
            "count" : 432,
            "type" : "VEC3"
        },
        {
            "bufferView" : 20,
            "componentType" : 5123,
            "count" : 648,
            "type" : "SCALAR"
        },
        {
            "bufferView" : 21,
            "componentType" : 5126,
            "count" : 216,
            "max" : [
                3.1676111221313477,
                1.2853822708129883,
                2.125859022140503
            ],
            "min" : [
                -4.094106197357178,
                0.03588331490755081,
                -2.5095956325531006
            ],
            "type" : "VEC3"
        },
        {
            "bufferView" : 22,
            "componentType" : 5126,
            "count" : 216,
            "type" : "VEC3"
        },
        {
            "bufferView" : 23,
            "componentType" : 5123,
            "count" : 324,
            "type" : "SCALAR"
        },
        {
            "bufferView" : 24,
            "componentType" : 5126,
            "count" : 264,
            "max" : [
                2.1575100421905518,
                1.8524177074432373,
                0.7117174863815308
            ],
            "min" : [
                -5.1042070388793945,
                0.03588331490755081,
                -1.8025249242782593
            ],
            "type" : "VEC3"
        },
        {
            "bufferView" : 25,
            "componentType" : 5126,
            "count" : 264,
            "type" : "VEC3"
        },
        {
            "bufferView" : 26,
            "componentType" : 5123,
            "count" : 396,
            "type" : "SCALAR"
        },
        {
            "bufferView" : 27,
            "componentType" : 5126,
            "count" : 240,
            "max" : [
                4.076702117919922,
                4.03588342666626,
                1.5197981595993042
            ],
            "min" : [
                -4.599156856536865,
                0.035883255302906036,
                -2.3075754642486572
            ],
            "type" : "VEC3"
        },
        {
            "bufferView" : 28,
            "componentType" : 5126,
            "count" : 240,
            "type" : "VEC3"
        },
        {
            "bufferView" : 29,
            "componentType" : 5123,
            "count" : 360,
            "type" : "SCALAR"
        }
    ],
    "bufferViews" : [
        {
            "buffer" : 0,
            "byteLength" : 868032,
            "byteOffset" : 0
        },
        {
            "buffer" : 0,
            "byteLength" : 868032,
            "byteOffset" : 868032
        },
        {
            "buffer" : 0,
            "byteLength" : 434016,
            "byteOffset" : 1736064
        },
        {
            "buffer" : 0,
            "byteLength" : 67680,
            "byteOffset" : 2170080
        },
        {
            "buffer" : 0,
            "byteLength" : 67680,
            "byteOffset" : 2237760
        },
        {
            "buffer" : 0,
            "byteLength" : 16920,
            "byteOffset" : 2305440
        },
        {
            "buffer" : 0,
            "byteLength" : 32544,
            "byteOffset" : 2322360
        },
        {
            "buffer" : 0,
            "byteLength" : 32544,
            "byteOffset" : 2354904
        },
        {
            "buffer" : 0,
            "byteLength" : 8136,
            "byteOffset" : 2387448
        },
        {
            "buffer" : 0,
            "byteLength" : 17280,
            "byteOffset" : 2395584
        },
        {
            "buffer" : 0,
            "byteLength" : 17280,
            "byteOffset" : 2412864
        },
        {
            "buffer" : 0,
            "byteLength" : 4320,
            "byteOffset" : 2430144
        },
        {
            "buffer" : 0,
            "byteLength" : 9216,
            "byteOffset" : 2434464
        },
        {
            "buffer" : 0,
            "byteLength" : 9216,
            "byteOffset" : 2443680
        },
        {
            "buffer" : 0,
            "byteLength" : 2304,
            "byteOffset" : 2452896
        },
        {
            "buffer" : 0,
            "byteLength" : 8640,
            "byteOffset" : 2455200
        },
        {
            "buffer" : 0,
            "byteLength" : 8640,
            "byteOffset" : 2463840
        },
        {
            "buffer" : 0,
            "byteLength" : 2160,
            "byteOffset" : 2472480
        },
        {
            "buffer" : 0,
            "byteLength" : 5184,
            "byteOffset" : 2474640
        },
        {
            "buffer" : 0,
            "byteLength" : 5184,
            "byteOffset" : 2479824
        },
        {
            "buffer" : 0,
            "byteLength" : 1296,
            "byteOffset" : 2485008
        },
        {
            "buffer" : 0,
            "byteLength" : 2592,
            "byteOffset" : 2486304
        },
        {
            "buffer" : 0,
            "byteLength" : 2592,
            "byteOffset" : 2488896
        },
        {
            "buffer" : 0,
            "byteLength" : 648,
            "byteOffset" : 2491488
        },
        {
            "buffer" : 0,
            "byteLength" : 3168,
            "byteOffset" : 2492136
        },
        {
            "buffer" : 0,
            "byteLength" : 3168,
            "byteOffset" : 2495304
        },
        {
            "buffer" : 0,
            "byteLength" : 792,
            "byteOffset" : 2498472
        },
        {
            "buffer" : 0,
            "byteLength" : 2880,
            "byteOffset" : 2499264
        },
        {
            "buffer" : 0,
            "byteLength" : 2880,
            "byteOffset" : 2502144
        },
        {
            "buffer" : 0,
            "byteLength" : 720,
            "byteOffset" : 2505024
        }
    ],
    "buffers" : [
        {
            "byteLength" : 2505744,
            "uri" : "data:application/octet-stream;base64,"
        }
    ]
}
