{
    "asset" : {
        "generator" : "Khronos glTF Blender I/O v1.8.19",
        "version" : "2.0"
    },
    "scene" : 0,
    "scenes" : [
        {
            "name" : "Scene",
            "nodes" : [
                0,
                1,
                2,
                3,
                4,
                5,
                6,
                7,
                8,
                9,
                10
            ]
        }
    ],
    "nodes" : [
        {
            "name" : "Target",
            "rotation" : [
                0.12546207010746002,
                0.46939757466316223,
                -0.06758183985948563,
                0.8714114427566528
            ],
            "translation" : [
                1.5953238010406494,
                0.019913971424102783,
                0.8702058792114258
            ]
        },
        {
            "mesh" : 0,
            "name" : "Object",
            "rotation" : [
                0.12546207010746002,
                0.46939757466316223,
                -0.06758183985948563,
                0.8714114427566528
            ],
            "translation" : [
                -0.12953241169452667,
                0.04800860583782196,
                0.09297941625118256
            ]
        },
        {
            "mesh" : 1,
            "name" : "Object.001",
            "rotation" : [
                0.12546207010746002,
                0.46939757466316223,
                -0.06758183985948563,
                0.8714114427566528
            ],
            "translation" : [
                -0.12953241169452667,
                0.04800860583782196,
                0.09297941625118256
            ]
        },
        {
            "mesh" : 2,
            "name" : "Object.002",
            "rotation" : [
                0.12546207010746002,
                0.46939757466316223,
                -0.06758183985948563,
                0.8714114427566528
            ],
            "translation" : [
                -0.12953241169452667,
                0.04800860583782196,
                0.09297941625118256
            ]
        },
        {
            "mesh" : 3,
            "name" : "Object.003",
            "rotation" : [
                0.12546207010746002,
                0.46939757466316223,
                -0.06758183985948563,
                0.8714114427566528
            ],
            "translation" : [
                -0.12953241169452667,
                0.04800860583782196,
                0.09297941625118256
            ]
        },
        {
            "mesh" : 4,
            "name" : "Object.004",
            "rotation" : [
                0.12546207010746002,
                0.46939757466316223,
                -0.06758183985948563,
                0.8714114427566528
            ],
            "translation" : [
                -0.12953241169452667,
                0.04800860583782196,
                0.09297941625118256
            ]
        },
        {
            "mesh" : 5,
            "name" : "Object.005",
            "rotation" : [
                0.12546207010746002,
                0.46939757466316223,
                -0.06758183985948563,
                0.8714114427566528
            ],
            "translation" : [
                -0.12953241169452667,
                0.04800860583782196,
                0.09297941625118256
            ]
        },
        {
            "mesh" : 6,
            "name" : "Object.006",
            "rotation" : [
                0.12546207010746002,
                0.46939757466316223,
                -0.06758183985948563,
                0.8714114427566528
            ],
            "translation" : [
                -0.12953241169452667,
                0.04800860583782196,
                0.09297941625118256
            ]
        },
        {
            "mesh" : 7,
            "name" : "Object.007",
            "rotation" : [
                0.12546207010746002,
                0.46939757466316223,
                -0.06758183985948563,
                0.8714114427566528
            ],
            "translation" : [
                -0.12953241169452667,
                0.04800860583782196,
                0.09297941625118256
            ]
        },
        {
            "mesh" : 8,
            "name" : "Object.008",
            "rotation" : [
                0.12546207010746002,
                0.46939757466316223,
                -0.06758183985948563,
                0.8714114427566528
            ],
            "translation" : [
                -0.12953241169452667,
                0.04800860583782196,
                0.09297941625118256
            ]
        },
        {
            "mesh" : 9,
            "name" : "Object.009",
            "rotation" : [
                0.12546207010746002,
                0.46939757466316223,
                -0.06758183985948563,
                0.8714114427566528
            ],
            "translation" : [
                -0.12953241169452667,
                0.04800860583782196,
                0.09297941625118256
            ]
        }
    ],
    "materials" : [
        {
            "doubleSided" : true,
            "name" : "Material.011",
            "pbrMetallicRoughness" : {
                "baseColorFactor" : [
                    0.26700401306152344,
                    0.004873999860137701,
                    0.3294149935245514,
                    1
                ],
                "metallicFactor" : 0,
                "roughnessFactor" : 0.4000000059604645
            }
        },
        {
            "doubleSided" : true,
            "name" : "Material.012",
            "pbrMetallicRoughness" : {
                "baseColorFactor" : [
                    0.2826229929924011,
                    0.14092600345611572,
                    0.45751699805259705,
                    1
                ],
                "metallicFactor" : 0,
                "roughnessFactor" : 0.4000000059604645
            }
        },
        {
            "doubleSided" : true,
            "name" : "Material.013",
            "pbrMetallicRoughness" : {
                "baseColorFactor" : [
                    0.2539350092411041,
                    0.2652539908885956,
                    0.5299829840660095,
                    1
                ],
                "metallicFactor" : 0,
                "roughnessFactor" : 0.4000000059604645
            }
        },
        {
            "doubleSided" : true,
            "name" : "Material.014",
            "pbrMetallicRoughness" : {
                "baseColorFactor" : [
                    0.20675599575042725,
                    0.37175801396369934,
                    0.5531169772148132,
                    1
                ],
                "metallicFactor" : 0,
                "roughnessFactor" : 0.4000000059604645
            }
        },
        {
            "doubleSided" : true,
            "name" : "Material.015",
            "pbrMetallicRoughness" : {
                "baseColorFactor" : [
                    0.16362500190734863,
                    0.4711329936981201,
                    0.5581480264663696,
                    1
                ],
                "metallicFactor" : 0,
                "roughnessFactor" : 0.4000000059604645
            }
        },
        {
            "doubleSided" : true,
            "name" : "Material.016",
            "pbrMetallicRoughness" : {
                "baseColorFactor" : [
                    0.12756800651550293,
                    0.5669490098953247,
                    0.5505560040473938,
                    1
                ],
                "metallicFactor" : 0,
                "roughnessFactor" : 0.4000000059604645
            }
        },
        {
            "doubleSided" : true,
            "name" : "Material.017",
            "pbrMetallicRoughness" : {
                "baseColorFactor" : [
                    0.1346919983625412,
                    0.6586359739303589,
                    0.5176489949226379,
                    1
                ],
                "metallicFactor" : 0,
                "roughnessFactor" : 0.4000000059604645
            }
        },
        {
            "doubleSided" : true,
            "name" : "Material.018",
            "pbrMetallicRoughness" : {
                "baseColorFactor" : [
                    0.26694101095199585,
                    0.7487509846687317,
                    0.4405730068683624,
                    1
                ],
                "metallicFactor" : 0,
                "roughnessFactor" : 0.4000000059604645
            }
        },
        {
            "doubleSided" : true,
            "name" : "Material.019",
            "pbrMetallicRoughness" : {
                "baseColorFactor" : [
                    0.4775039851665497,
                    0.8214439749717712,
                    0.3181949853897095,
                    1
                ],
                "metallicFactor" : 0,
                "roughnessFactor" : 0.4000000059604645
            }
        },
        {
            "doubleSided" : true,
            "name" : "Material.020",
            "pbrMetallicRoughness" : {
                "baseColorFactor" : [
                    0.7413880228996277,
                    0.8734490275382996,
                    0.14956100285053253,
                    1
                ],
                "metallicFactor" : 0,
                "roughnessFactor" : 0.4000000059604645
            }
        }
    ],
    "meshes" : [
        {
            "name" : "ObjectMesh.010",
            "primitives" : [
                {
                    "attributes" : {
                        "POSITION" : 0,
                        "NORMAL" : 1
                    },
                    "indices" : 2,
                    "material" : 0
                }
            ]
        },
        {
            "name" : "ObjectMesh.011",
            "primitives" : [
                {
                    "attributes" : {
                        "POSITION" : 3,
                        "NORMAL" : 4
                    },
                    "indices" : 5,
                    "material" : 1
                }
            ]
        },
        {
            "name" : "ObjectMesh.012",
            "primitives" : [
                {
                    "attributes" : {
                        "POSITION" : 6,
                        "NORMAL" : 7
                    },
                    "indices" : 8,
                    "material" : 2
                }
            ]
        },
        {
            "name" : "ObjectMesh.013",
            "primitives" : [
                {
                    "attributes" : {
                        "POSITION" : 9,
                        "NORMAL" : 10
                    },
                    "indices" : 11,
                    "material" : 3
                }
            ]
        },
        {
            "name" : "ObjectMesh.014",
            "primitives" : [
                {
                    "attributes" : {
                        "POSITION" : 12,
                        "NORMAL" : 13
                    },
                    "indices" : 14,
                    "material" : 4
                }
            ]
        },
        {
            "name" : "ObjectMesh.015",
            "primitives" : [
                {
                    "attributes" : {
                        "POSITION" : 15,
                        "NORMAL" : 16
                    },
                    "indices" : 17,
                    "material" : 5
                }
            ]
        },
        {
            "name" : "ObjectMesh.016",
            "primitives" : [
                {
                    "attributes" : {
                        "POSITION" : 18,
                        "NORMAL" : 19
                    },
                    "indices" : 20,
                    "material" : 6
                }
            ]
        },
        {
            "name" : "ObjectMesh.017",
            "primitives" : [
                {
                    "attributes" : {
                        "POSITION" : 21,
                        "NORMAL" : 22
                    },
                    "indices" : 14,
                    "material" : 7
                }
            ]
        },
        {
            "name" : "ObjectMesh.018",
            "primitives" : [
                {
                    "attributes" : {
                        "POSITION" : 23,
                        "NORMAL" : 24
                    },
                    "indices" : 25,
                    "material" : 8
                }
            ]
        },
        {
            "name" : "ObjectMesh.019",
            "primitives" : [
                {
                    "attributes" : {
                        "POSITION" : 26,
                        "NORMAL" : 27
                    },
                    "indices" : 28,
                    "material" : 9
                }
            ]
        }
    ],
    "accessors" : [
        {
            "bufferView" : 0,
            "componentType" : 5126,
            "count" : 56520,
            "max" : [
                5.045000076293945,
                0.17231237888336182,
                3.3278284072875977
            ],
            "min" : [
                -5.045000076293945,
                -7.450580596923828e-09,
                -3.3278284072875977
            ],
            "type" : "VEC3"
        },
        {
            "bufferView" : 1,
            "componentType" : 5126,
            "count" : 56520,
            "type" : "VEC3"
        },
        {
            "bufferView" : 2,
            "componentType" : 5123,
            "count" : 84780,
            "type" : "SCALAR"
        },
        {
            "bufferView" : 3,
            "componentType" : 5126,
            "count" : 8280,
            "max" : [
                5.045000076293945,
                0.26270928978919983,
                2.82277774810791
            ],
            "min" : [
                -5.045000076293945,
                -1.4901161193847656e-08,
                -3.0247981548309326
            ],
            "type" : "VEC3"
        },
        {
            "bufferView" : 4,
            "componentType" : 5126,
            "count" : 8280,
            "type" : "VEC3"
        },
        {
            "bufferView" : 5,
            "componentType" : 5123,
            "count" : 12420,
            "type" : "SCALAR"
        },
        {
            "bufferView" : 6,
            "componentType" : 5126,
            "count" : 2112,
            "max" : [
                3.529848575592041,
                0.3688269257545471,
                2.7217676639556885
            ],
            "min" : [
                -4.438939571380615,
                -1.4901161193847656e-08,
                -3.1258082389831543
            ],
            "type" : "VEC3"
        },
        {
            "bufferView" : 7,
            "componentType" : 5126,
            "count" : 2112,
            "type" : "VEC3"
        },
        {
            "bufferView" : 8,
            "componentType" : 5123,
            "count" : 3168,
            "type" : "SCALAR"
        },
        {
            "bufferView" : 9,
            "componentType" : 5126,
            "count" : 888,
            "max" : [
                3.6308586597442627,
                0.48274141550064087,
                2.519747495651245
            ],
            "min" : [
                -4.135909080505371,
                -1.4901161193847656e-08,
                -2.21671724319458
            ],
            "type" : "VEC3"
        },
        {
            "bufferView" : 10,
            "componentType" : 5126,
            "count" : 888,
            "type" : "VEC3"
        },
        {
            "bufferView" : 11,
            "componentType" : 5123,
            "count" : 1332,
            "type" : "SCALAR"
        },
        {
            "bufferView" : 12,
            "componentType" : 5126,
            "count" : 216,
            "max" : [
                0.8025757670402527,
                0.5965189933776855,
                0.8025757670402527
            ],
            "min" : [
                -3.226818323135376,
                -2.9802322387695312e-08,
                -1.4086363315582275
            ],
            "type" : "VEC3"
        },
        {
            "bufferView" : 13,
            "componentType" : 5126,
            "count" : 216,
            "type" : "VEC3"
        },
        {
            "bufferView" : 14,
            "componentType" : 5123,
            "count" : 324,
            "type" : "SCALAR"
        },
        {
            "bufferView" : 15,
            "componentType" : 5126,
            "count" : 144,
            "max" : [
                -0.4095454812049866,
                0.7482412457466125,
                2.620757579803467
            ],
            "min" : [
                -2.519747495651245,
                0,
                -0.8025757670402527
            ],
            "type" : "VEC3"
        },
        {
            "bufferView" : 16,
            "componentType" : 5126,
            "count" : 144,
            "type" : "VEC3"
        },
        {
            "bufferView" : 17,
            "componentType" : 5123,
            "count" : 216,
            "type" : "SCALAR"
        },
        {
            "bufferView" : 18,
            "componentType" : 5126,
            "count" : 168,
            "max" : [
                2.0146970748901367,
                0.9366134405136108,
                2.0146970748901367
            ],
            "min" : [
                -2.4187374114990234,
                -2.9802322387695312e-08,
                -2.1157071590423584
            ],
            "type" : "VEC3"
        },
        {
            "bufferView" : 19,
            "componentType" : 5126,
            "count" : 168,
            "type" : "VEC3"
        },
        {
            "bufferView" : 20,
            "componentType" : 5123,
            "count" : 252,
            "type" : "SCALAR"
        },
        {
            "bufferView" : 21,
            "componentType" : 5126,
            "count" : 216,
            "max" : [
                3.529848575592041,
                1.3337359428405762,
                2.21671724319458
            ],
            "min" : [
                -1.8126766681671143,
                -5.960464477539063e-08,
                -2.1157071590423584
            ],
            "type" : "VEC3"
        },
        {
            "bufferView" : 22,
            "componentType" : 5126,
            "count" : 216,
            "type" : "VEC3"
        },
        {
            "bufferView" : 23,
            "componentType" : 5126,
            "count" : 96,
            "max" : [
                -0.5105555653572083,
                1.7625763416290283,
                2.620757579803467
            ],
            "min" : [
                -2.0146970748901367,
                -5.960464477539063e-08,
                -0.9035858511924744
            ],
            "type" : "VEC3"
        },
        {
            "bufferView" : 24,
            "componentType" : 5126,
            "count" : 96,
            "type" : "VEC3"
        },
        {
            "bufferView" : 25,
            "componentType" : 5123,
            "count" : 144,
            "type" : "SCALAR"
        },
        {
            "bufferView" : 26,
            "componentType" : 5126,
            "count" : 72,
            "max" : [
                -0.5105555653572083,
                4,
                -0.6115656495094299
            ],
            "min" : [
                -0.701565682888031,
                -1.1920928955078125e-07,
                -0.8025757670402527
            ],
            "type" : "VEC3"
        },
        {
            "bufferView" : 27,
            "componentType" : 5126,
            "count" : 72,
            "type" : "VEC3"
        },
        {
            "bufferView" : 28,
            "componentType" : 5123,
            "count" : 108,
            "type" : "SCALAR"
        }
    ],
    "bufferViews" : [
        {
            "buffer" : 0,
            "byteLength" : 678240,
            "byteOffset" : 0
        },
        {
            "buffer" : 0,
            "byteLength" : 678240,
            "byteOffset" : 678240
        },
        {
            "buffer" : 0,
            "byteLength" : 169560,
            "byteOffset" : 1356480
        },
        {
            "buffer" : 0,
            "byteLength" : 99360,
            "byteOffset" : 1526040
        },
        {
            "buffer" : 0,
            "byteLength" : 99360,
            "byteOffset" : 1625400
        },
        {
            "buffer" : 0,
            "byteLength" : 24840,
            "byteOffset" : 1724760
        },
        {
            "buffer" : 0,
            "byteLength" : 25344,
            "byteOffset" : 1749600
        },
        {
            "buffer" : 0,
            "byteLength" : 25344,
            "byteOffset" : 1774944
        },
        {
            "buffer" : 0,
            "byteLength" : 6336,
            "byteOffset" : 1800288
        },
        {
            "buffer" : 0,
            "byteLength" : 10656,
            "byteOffset" : 1806624
        },
        {
            "buffer" : 0,
            "byteLength" : 10656,
            "byteOffset" : 1817280
        },
        {
            "buffer" : 0,
            "byteLength" : 2664,
            "byteOffset" : 1827936
        },
        {
            "buffer" : 0,
            "byteLength" : 2592,
            "byteOffset" : 1830600
        },
        {
            "buffer" : 0,
            "byteLength" : 2592,
            "byteOffset" : 1833192
        },
        {
            "buffer" : 0,
            "byteLength" : 648,
            "byteOffset" : 1835784
        },
        {
            "buffer" : 0,
            "byteLength" : 1728,
            "byteOffset" : 1836432
        },
        {
            "buffer" : 0,
            "byteLength" : 1728,
            "byteOffset" : 1838160
        },
        {
            "buffer" : 0,
            "byteLength" : 432,
            "byteOffset" : 1839888
        },
        {
            "buffer" : 0,
            "byteLength" : 2016,
            "byteOffset" : 1840320
        },
        {
            "buffer" : 0,
            "byteLength" : 2016,
            "byteOffset" : 1842336
        },
        {
            "buffer" : 0,
            "byteLength" : 504,
            "byteOffset" : 1844352
        },
        {
            "buffer" : 0,
            "byteLength" : 2592,
            "byteOffset" : 1844856
        },
        {
            "buffer" : 0,
            "byteLength" : 2592,
            "byteOffset" : 1847448
        },
        {
            "buffer" : 0,
            "byteLength" : 1152,
            "byteOffset" : 1850040
        },
        {
            "buffer" : 0,
            "byteLength" : 1152,
            "byteOffset" : 1851192
        },
        {
            "buffer" : 0,
            "byteLength" : 288,
            "byteOffset" : 1852344
        },
        {
            "buffer" : 0,
            "byteLength" : 864,
            "byteOffset" : 1852632
        },
        {
            "buffer" : 0,
            "byteLength" : 864,
            "byteOffset" : 1853496
        },
        {
            "buffer" : 0,
            "byteLength" : 216,
            "byteOffset" : 1854360
        }
    ],
    "buffers" : [
        {
            "byteLength" : 1854576,
            "uri" : "data:application/octet-stream;base64,"
        }
    ]
}
