{
    "asset" : {
        "generator" : "Khronos glTF Blender I/O v1.8.19",
        "version" : "2.0"
    },
    "scene" : 0,
    "scenes" : [
        {
            "name" : "Scene",
            "nodes" : [
                0,
                1,
                2,
                3,
                4,
                5,
                6,
                7,
                8,
                9,
                10
            ]
        }
    ],
    "nodes" : [
        {
            "name" : "Target.001",
            "rotation" : [
                0.23293174803256989,
                0.39348119497299194,
                -0.07844209671020508,
                0.8858680725097656
            ],
            "translation" : [
                1.4396705627441406,
                -0.31915974617004395,
                1.0751546621322632
            ]
        },
        {
            "mesh" : 0,
            "name" : "Object.010",
            "rotation" : [
                0.23293174803256989,
                0.39348119497299194,
                -0.07844209671020508,
                0.8858680725097656
            ],
            "translation" : [
                -0.11396709084510803,
                0.081915944814682,
                0.07248452305793762
            ]
        },
        {
            "mesh" : 1,
            "name" : "Object.011",
            "rotation" : [
                0.23293174803256989,
                0.39348119497299194,
                -0.07844209671020508,
                0.8858680725097656
            ],
            "translation" : [
                -0.11396709084510803,
                0.081915944814682,
                0.07248452305793762
            ]
        },
        {
            "mesh" : 2,
            "name" : "Object.012",
            "rotation" : [
                0.23293174803256989,
                0.39348119497299194,
                -0.07844209671020508,
                0.8858680725097656
            ],
            "translation" : [
                -0.11396709084510803,
                0.081915944814682,
                0.07248452305793762
            ]
        },
        {
            "mesh" : 3,
            "name" : "Object.013",
            "rotation" : [
                0.23293174803256989,
                0.39348119497299194,
                -0.07844209671020508,
                0.8858680725097656
            ],
            "translation" : [
                -0.11396709084510803,
                0.081915944814682,
                0.07248452305793762
            ]
        },
        {
            "mesh" : 4,
            "name" : "Object.014",
            "rotation" : [
                0.23293174803256989,
                0.39348119497299194,
                -0.07844209671020508,
                0.8858680725097656
            ],
            "translation" : [
                -0.11396709084510803,
                0.081915944814682,
                0.07248452305793762
            ]
        },
        {
            "mesh" : 5,
            "name" : "Object.015",
            "rotation" : [
                0.23293174803256989,
                0.39348119497299194,
                -0.07844209671020508,
                0.8858680725097656
            ],
            "translation" : [
                -0.11396709084510803,
                0.081915944814682,
                0.07248452305793762
            ]
        },
        {
            "mesh" : 6,
            "name" : "Object.016",
            "rotation" : [
                0.23293174803256989,
                0.39348119497299194,
                -0.07844209671020508,
                0.8858680725097656
            ],
            "translation" : [
                -0.11396709084510803,
                0.081915944814682,
                0.07248452305793762
            ]
        },
        {
            "mesh" : 7,
            "name" : "Object.017",
            "rotation" : [
                0.23293174803256989,
                0.39348119497299194,
                -0.07844209671020508,
                0.8858680725097656
            ],
            "translation" : [
                -0.11396709084510803,
                0.081915944814682,
                0.07248452305793762
            ]
        },
        {
            "mesh" : 8,
            "name" : "Object.018",
            "rotation" : [
                0.23293174803256989,
                0.39348119497299194,
                -0.07844209671020508,
                0.8858680725097656
            ],
            "translation" : [
                -0.11396709084510803,
                0.081915944814682,
                0.07248452305793762
            ]
        },
        {
            "mesh" : 9,
            "name" : "Object.019",
            "rotation" : [
                0.23293174803256989,
                0.39348119497299194,
                -0.07844209671020508,
                0.8858680725097656
            ],
            "translation" : [
                -0.11396709084510803,
                0.081915944814682,
                0.07248452305793762
            ]
        }
    ],
    "materials" : [
        {
            "doubleSided" : true,
            "name" : "Material.031",
            "pbrMetallicRoughness" : {
                "baseColorFactor" : [
                    0.26700401306152344,
                    0.004873999860137701,
                    0.3294149935245514,
                    1
                ],
                "metallicFactor" : 0,
                "roughnessFactor" : 0.4000000059604645
            }
        },
        {
            "doubleSided" : true,
            "name" : "Material.032",
            "pbrMetallicRoughness" : {
                "baseColorFactor" : [
                    0.2826229929924011,
                    0.14092600345611572,
                    0.45751699805259705,
                    1
                ],
                "metallicFactor" : 0,
                "roughnessFactor" : 0.4000000059604645
            }
        },
        {
            "doubleSided" : true,
            "name" : "Material.033",
            "pbrMetallicRoughness" : {
                "baseColorFactor" : [
                    0.2539350092411041,
                    0.2652539908885956,
                    0.5299829840660095,
                    1
                ],
                "metallicFactor" : 0,
                "roughnessFactor" : 0.4000000059604645
            }
        },
        {
            "doubleSided" : true,
            "name" : "Material.034",
            "pbrMetallicRoughness" : {
                "baseColorFactor" : [
                    0.20675599575042725,
                    0.37175801396369934,
                    0.5531169772148132,
                    1
                ],
                "metallicFactor" : 0,
                "roughnessFactor" : 0.4000000059604645
            }
        },
        {
            "doubleSided" : true,
            "name" : "Material.035",
            "pbrMetallicRoughness" : {
                "baseColorFactor" : [
                    0.16362500190734863,
                    0.4711329936981201,
                    0.5581480264663696,
                    1
                ],
                "metallicFactor" : 0,
                "roughnessFactor" : 0.4000000059604645
            }
        },
        {
            "doubleSided" : true,
            "name" : "Material.036",
            "pbrMetallicRoughness" : {
                "baseColorFactor" : [
                    0.12756800651550293,
                    0.5669490098953247,
                    0.5505560040473938,
                    1
                ],
                "metallicFactor" : 0,
                "roughnessFactor" : 0.4000000059604645
            }
        },
        {
            "doubleSided" : true,
            "name" : "Material.037",
            "pbrMetallicRoughness" : {
                "baseColorFactor" : [
                    0.1346919983625412,
                    0.6586359739303589,
                    0.5176489949226379,
                    1
                ],
                "metallicFactor" : 0,
                "roughnessFactor" : 0.4000000059604645
            }
        },
        {
            "doubleSided" : true,
            "name" : "Material.038",
            "pbrMetallicRoughness" : {
                "baseColorFactor" : [
                    0.26694101095199585,
                    0.7487509846687317,
                    0.4405730068683624,
                    1
                ],
                "metallicFactor" : 0,
                "roughnessFactor" : 0.4000000059604645
            }
        },
        {
            "doubleSided" : true,
            "name" : "Material.039",
            "pbrMetallicRoughness" : {
                "baseColorFactor" : [
                    0.4775039851665497,
                    0.8214439749717712,
                    0.3181949853897095,
                    1
                ],
                "metallicFactor" : 0,
                "roughnessFactor" : 0.4000000059604645
            }
        },
        {
            "doubleSided" : true,
            "name" : "Material.040",
            "pbrMetallicRoughness" : {
                "baseColorFactor" : [
                    0.7413880228996277,
                    0.8734490275382996,
                    0.14956100285053253,
                    1
                ],
                "metallicFactor" : 0,
                "roughnessFactor" : 0.4000000059604645
            }
        }
    ],
    "meshes" : [
        {
            "name" : "ObjectMesh.030",
            "primitives" : [
                {
                    "attributes" : {
                        "POSITION" : 0,
                        "NORMAL" : 1
                    },
                    "indices" : 2,
                    "material" : 0
                }
            ]
        },
        {
            "name" : "ObjectMesh.031",
            "primitives" : [
                {
                    "attributes" : {
                        "POSITION" : 3,
                        "NORMAL" : 4
                    },
                    "indices" : 5,
                    "material" : 1
                }
            ]
        },
        {
            "name" : "ObjectMesh.032",
            "primitives" : [
                {
                    "attributes" : {
                        "POSITION" : 6,
                        "NORMAL" : 7
                    },
                    "indices" : 8,
                    "material" : 2
                }
            ]
        },
        {
            "name" : "ObjectMesh.033",
            "primitives" : [
                {
                    "attributes" : {
                        "POSITION" : 9,
                        "NORMAL" : 10
                    },
                    "indices" : 11,
                    "material" : 3
                }
            ]
        },
        {
            "name" : "ObjectMesh.034",
            "primitives" : [
                {
                    "attributes" : {
                        "POSITION" : 12,
                        "NORMAL" : 13
                    },
                    "indices" : 14,
                    "material" : 4
                }
            ]
        },
        {
            "name" : "ObjectMesh.035",
            "primitives" : [
                {
                    "attributes" : {
                        "POSITION" : 15,
                        "NORMAL" : 16
                    },
                    "indices" : 17,
                    "material" : 5
                }
            ]
        },
        {
            "name" : "ObjectMesh.036",
            "primitives" : [
                {
                    "attributes" : {
                        "POSITION" : 18,
                        "NORMAL" : 19
                    },
                    "indices" : 20,
                    "material" : 6
                }
            ]
        },
        {
            "name" : "ObjectMesh.037",
            "primitives" : [
                {
                    "attributes" : {
                        "POSITION" : 21,
                        "NORMAL" : 22
                    },
                    "indices" : 23,
                    "material" : 7
                }
            ]
        },
        {
            "name" : "ObjectMesh.038",
            "primitives" : [
                {
                    "attributes" : {
                        "POSITION" : 24,
                        "NORMAL" : 25
                    },
                    "indices" : 26,
                    "material" : 8
                }
            ]
        },
        {
            "name" : "ObjectMesh.039",
            "primitives" : [
                {
                    "attributes" : {
                        "POSITION" : 27,
                        "NORMAL" : 28
                    },
                    "indices" : 29,
                    "material" : 9
                }
            ]
        }
    ],
    "accessors" : [
        {
            "bufferView" : 0,
            "componentType" : 5126,
            "count" : 42360,
            "max" : [
                5.045000076293945,
                0.1723393201828003,
                3.226818323135376
            ],
            "min" : [
                -5.045000076293945,
                -7.450580596923828e-09,
                -3.226818323135376
            ],
            "type" : "VEC3"
        },
        {
            "bufferView" : 1,
            "componentType" : 5126,
            "count" : 42360,
            "type" : "VEC3"
        },
        {
            "bufferView" : 2,
            "componentType" : 5123,
            "count" : 63540,
            "type" : "SCALAR"
        },
        {
            "bufferView" : 3,
            "componentType" : 5126,
            "count" : 28320,
            "max" : [
                5.045000076293945,
                0.26444104313850403,
                3.1258082389831543
            ],
            "min" : [
                -4.9439897537231445,
                -1.4901161193847656e-08,
                -3.1258082389831543
            ],
            "type" : "VEC3"
        },
        {
            "bufferView" : 4,
            "componentType" : 5126,
            "count" : 28320,
            "type" : "VEC3"
        },
        {
            "bufferView" : 5,
            "componentType" : 5123,
            "count" : 42480,
            "type" : "SCALAR"
        },
        {
            "bufferView" : 6,
            "componentType" : 5126,
            "count" : 15816,
            "max" : [
                5.045000076293945,
                0.3688433766365051,
                3.0247981548309326
            ],
            "min" : [
                -4.9439897537231445,
                -2.9802322387695312e-08,
                -3.1258082389831543
            ],
            "type" : "VEC3"
        },
        {
            "bufferView" : 7,
            "componentType" : 5126,
            "count" : 15816,
            "type" : "VEC3"
        },
        {
            "bufferView" : 8,
            "componentType" : 5123,
            "count" : 23724,
            "type" : "SCALAR"
        },
        {
            "bufferView" : 9,
            "componentType" : 5126,
            "count" : 4656,
            "max" : [
                4.9439897537231445,
                0.48929423093795776,
                3.0247981548309326
            ],
            "min" : [
                -4.842979907989502,
                -2.9802322387695312e-08,
                -3.0247981548309326
            ],
            "type" : "VEC3"
        },
        {
            "bufferView" : 10,
            "componentType" : 5126,
            "count" : 4656,
            "type" : "VEC3"
        },
        {
            "bufferView" : 11,
            "componentType" : 5123,
            "count" : 6984,
            "type" : "SCALAR"
        },
        {
            "bufferView" : 12,
            "componentType" : 5126,
            "count" : 1536,
            "max" : [
                3.226818323135376,
                0.6248298287391663,
                2.620757579803467
            ],
            "min" : [
                -4.438939571380615,
                -2.9802322387695312e-08,
                -2.7217676639556885
            ],
            "type" : "VEC3"
        },
        {
            "bufferView" : 13,
            "componentType" : 5126,
            "count" : 1536,
            "type" : "VEC3"
        },
        {
            "bufferView" : 14,
            "componentType" : 5123,
            "count" : 2304,
            "type" : "SCALAR"
        },
        {
            "bufferView" : 15,
            "componentType" : 5126,
            "count" : 528,
            "max" : [
                3.3278284072875977,
                0.8019918203353882,
                2.4187374114990234
            ],
            "min" : [
                -4.438939571380615,
                -2.9802322387695312e-08,
                -1.8126766681671143
            ],
            "type" : "VEC3"
        },
        {
            "bufferView" : 16,
            "componentType" : 5126,
            "count" : 528,
            "type" : "VEC3"
        },
        {
            "bufferView" : 17,
            "componentType" : 5123,
            "count" : 792,
            "type" : "SCALAR"
        },
        {
            "bufferView" : 18,
            "componentType" : 5126,
            "count" : 408,
            "max" : [
                1.9136868715286255,
                0.9846480488777161,
                2.4187374114990234
            ],
            "min" : [
                -4.438939571380615,
                -5.960464477539063e-08,
                -2.1157071590423584
            ],
            "type" : "VEC3"
        },
        {
            "bufferView" : 19,
            "componentType" : 5126,
            "count" : 408,
            "type" : "VEC3"
        },
        {
            "bufferView" : 20,
            "componentType" : 5123,
            "count" : 612,
            "type" : "SCALAR"
        },
        {
            "bufferView" : 21,
            "componentType" : 5126,
            "count" : 120,
            "max" : [
                -0.5105555653572083,
                1.2877330780029297,
                -0.0055050477385520935
            ],
            "min" : [
                -1.7116665840148926,
                -5.960464477539063e-08,
                -1.4086363315582275
            ],
            "type" : "VEC3"
        },
        {
            "bufferView" : 22,
            "componentType" : 5126,
            "count" : 120,
            "type" : "VEC3"
        },
        {
            "bufferView" : 23,
            "componentType" : 5123,
            "count" : 180,
            "type" : "SCALAR"
        },
        {
            "bufferView" : 24,
            "componentType" : 5126,
            "count" : 72,
            "max" : [
                3.226818323135376,
                1.5812578201293945,
                -0.6115656495094299
            ],
            "min" : [
                -0.6005555987358093,
                -5.960464477539063e-08,
                -0.8025757670402527
            ],
            "type" : "VEC3"
        },
        {
            "bufferView" : 25,
            "componentType" : 5126,
            "count" : 72,
            "type" : "VEC3"
        },
        {
            "bufferView" : 26,
            "componentType" : 5123,
            "count" : 108,
            "type" : "SCALAR"
        },
        {
            "bufferView" : 27,
            "componentType" : 5126,
            "count" : 96,
            "max" : [
                -0.6115656495094299,
                4,
                -0.6115656495094299
            ],
            "min" : [
                -0.8025757670402527,
                0,
                -0.8025757670402527
            ],
            "type" : "VEC3"
        },
        {
            "bufferView" : 28,
            "componentType" : 5126,
            "count" : 96,
            "type" : "VEC3"
        },
        {
            "bufferView" : 29,
            "componentType" : 5123,
            "count" : 144,
            "type" : "SCALAR"
        }
    ],
    "bufferViews" : [
        {
            "buffer" : 0,
            "byteLength" : 508320,
            "byteOffset" : 0
        },
        {
            "buffer" : 0,
            "byteLength" : 508320,
            "byteOffset" : 508320
        },
        {
            "buffer" : 0,
            "byteLength" : 127080,
            "byteOffset" : 1016640
        },
        {
            "buffer" : 0,
            "byteLength" : 339840,
            "byteOffset" : 1143720
        },
        {
            "buffer" : 0,
            "byteLength" : 339840,
            "byteOffset" : 1483560
        },
        {
            "buffer" : 0,
            "byteLength" : 84960,
            "byteOffset" : 1823400
        },
        {
            "buffer" : 0,
            "byteLength" : 189792,
            "byteOffset" : 1908360
        },
        {
            "buffer" : 0,
            "byteLength" : 189792,
            "byteOffset" : 2098152
        },
        {
            "buffer" : 0,
            "byteLength" : 47448,
            "byteOffset" : 2287944
        },
        {
            "buffer" : 0,
            "byteLength" : 55872,
            "byteOffset" : 2335392
        },
        {
            "buffer" : 0,
            "byteLength" : 55872,
            "byteOffset" : 2391264
        },
        {
            "buffer" : 0,
            "byteLength" : 13968,
            "byteOffset" : 2447136
        },
        {
            "buffer" : 0,
            "byteLength" : 18432,
            "byteOffset" : 2461104
        },
        {
            "buffer" : 0,
            "byteLength" : 18432,
            "byteOffset" : 2479536
        },
        {
            "buffer" : 0,
            "byteLength" : 4608,
            "byteOffset" : 2497968
        },
        {
            "buffer" : 0,
            "byteLength" : 6336,
            "byteOffset" : 2502576
        },
        {
            "buffer" : 0,
            "byteLength" : 6336,
            "byteOffset" : 2508912
        },
        {
            "buffer" : 0,
            "byteLength" : 1584,
            "byteOffset" : 2515248
        },
        {
            "buffer" : 0,
            "byteLength" : 4896,
            "byteOffset" : 2516832
        },
        {
            "buffer" : 0,
            "byteLength" : 4896,
            "byteOffset" : 2521728
        },
        {
            "buffer" : 0,
            "byteLength" : 1224,
            "byteOffset" : 2526624
        },
        {
            "buffer" : 0,
            "byteLength" : 1440,
            "byteOffset" : 2527848
        },
        {
            "buffer" : 0,
            "byteLength" : 1440,
            "byteOffset" : 2529288
        },
        {
            "buffer" : 0,
            "byteLength" : 360,
            "byteOffset" : 2530728
        },
        {
            "buffer" : 0,
            "byteLength" : 864,
            "byteOffset" : 2531088
        },
        {
            "buffer" : 0,
            "byteLength" : 864,
            "byteOffset" : 2531952
        },
        {
            "buffer" : 0,
            "byteLength" : 216,
            "byteOffset" : 2532816
        },
        {
            "buffer" : 0,
            "byteLength" : 1152,
            "byteOffset" : 2533032
        },
        {
            "buffer" : 0,
            "byteLength" : 1152,
            "byteOffset" : 2534184
        },
        {
            "buffer" : 0,
            "byteLength" : 288,
            "byteOffset" : 2535336
        }
    ],
    "buffers" : [
        {
            "byteLength" : 2535624,
            "uri" : "data:application/octet-stream;base64,"
        }
    ]
}
