{
    "asset" : {
        "generator" : "Khronos glTF Blender I/O v1.8.19",
        "version" : "2.0"
    },
    "scene" : 0,
    "scenes" : [
        {
            "name" : "Scene",
            "nodes" : [
                0,
                1,
                2,
                3,
                4,
                5,
                6,
                7,
                8,
                9,
                10
            ]
        }
    ],
    "nodes" : [
        {
            "name" : "Target",
            "translation" : [
                0.30000001192092896,
                0.5,
                0
            ]
        },
        {
            "mesh" : 0,
            "name" : "Object"
        },
        {
            "mesh" : 1,
            "name" : "Object.001"
        },
        {
            "mesh" : 2,
            "name" : "Object.002"
        },
        {
            "mesh" : 3,
            "name" : "Object.003"
        },
        {
            "mesh" : 4,
            "name" : "Object.004"
        },
        {
            "mesh" : 5,
            "name" : "Object.005"
        },
        {
            "mesh" : 6,
            "name" : "Object.006"
        },
        {
            "mesh" : 7,
            "name" : "Object.007"
        },
        {
            "name" : "Object.008"
        },
        {
            "mesh" : 8,
            "name" : "Object.009"
        }
    ],
    "materials" : [
        {
            "doubleSided" : true,
            "name" : "Material.031",
            "pbrMetallicRoughness" : {
                "baseColorFactor" : [
                    0.26700401306152344,
                    0.004873999860137701,
                    0.3294149935245514,
                    1
                ],
                "metallicFactor" : 0,
                "roughnessFactor" : 0.4000000059604645
            }
        },
        {
            "doubleSided" : true,
            "name" : "Material.032",
            "pbrMetallicRoughness" : {
                "baseColorFactor" : [
                    0.2826229929924011,
                    0.14092600345611572,
                    0.45751699805259705,
                    1
                ],
                "metallicFactor" : 0,
                "roughnessFactor" : 0.4000000059604645
            }
        },
        {
            "doubleSided" : true,
            "name" : "Material.033",
            "pbrMetallicRoughness" : {
                "baseColorFactor" : [
                    0.2539350092411041,
                    0.2652539908885956,
                    0.5299829840660095,
                    1
                ],
                "metallicFactor" : 0,
                "roughnessFactor" : 0.4000000059604645
            }
        },
        {
            "doubleSided" : true,
            "name" : "Material.034",
            "pbrMetallicRoughness" : {
                "baseColorFactor" : [
                    0.20675599575042725,
                    0.37175801396369934,
                    0.5531169772148132,
                    1
                ],
                "metallicFactor" : 0,
                "roughnessFactor" : 0.4000000059604645
            }
        },
        {
            "doubleSided" : true,
            "name" : "Material.035",
            "pbrMetallicRoughness" : {
                "baseColorFactor" : [
                    0.16362500190734863,
                    0.4711329936981201,
                    0.5581480264663696,
                    1
                ],
                "metallicFactor" : 0,
                "roughnessFactor" : 0.4000000059604645
            }
        },
        {
            "doubleSided" : true,
            "name" : "Material.036",
            "pbrMetallicRoughness" : {
                "baseColorFactor" : [
                    0.12756800651550293,
                    0.5669490098953247,
                    0.5505560040473938,
                    1
                ],
                "metallicFactor" : 0,
                "roughnessFactor" : 0.4000000059604645
            }
        },
        {
            "doubleSided" : true,
            "name" : "Material.037",
            "pbrMetallicRoughness" : {
                "baseColorFactor" : [
                    0.1346919983625412,
                    0.6586359739303589,
                    0.5176489949226379,
                    1
                ],
                "metallicFactor" : 0,
                "roughnessFactor" : 0.4000000059604645
            }
        },
        {
            "doubleSided" : true,
            "name" : "Material.038",
            "pbrMetallicRoughness" : {
                "baseColorFactor" : [
                    0.26694101095199585,
                    0.7487509846687317,
                    0.4405730068683624,
                    1
                ],
                "metallicFactor" : 0,
                "roughnessFactor" : 0.4000000059604645
            }
        },
        {
            "doubleSided" : true,
            "name" : "Material.040",
            "pbrMetallicRoughness" : {
                "baseColorFactor" : [
                    0.7413880228996277,
                    0.8734490275382996,
                    0.14956100285053253,
                    1
                ],
                "metallicFactor" : 0,
                "roughnessFactor" : 0.4000000059604645
            }
        }
    ],
    "meshes" : [
        {
            "name" : "ObjectMesh.030",
            "primitives" : [
                {
                    "attributes" : {
                        "POSITION" : 0,
                        "NORMAL" : 1
                    },
                    "indices" : 2,
                    "material" : 0
                }
            ]
        },
        {
            "name" : "ObjectMesh.031",
            "primitives" : [
                {
                    "attributes" : {
                        "POSITION" : 3,
                        "NORMAL" : 4
                    },
                    "indices" : 5,
                    "material" : 1
                }
            ]
        },
        {
            "name" : "ObjectMesh.032",
            "primitives" : [
                {
                    "attributes" : {
                        "POSITION" : 6,
                        "NORMAL" : 7
                    },
                    "indices" : 8,
                    "material" : 2
                }
            ]
        },
        {
            "name" : "ObjectMesh.033",
            "primitives" : [
                {
                    "attributes" : {
                        "POSITION" : 9,
                        "NORMAL" : 10
                    },
                    "indices" : 11,
                    "material" : 3
                }
            ]
        },
        {
            "name" : "ObjectMesh.034",
            "primitives" : [
                {
                    "attributes" : {
                        "POSITION" : 12,
                        "NORMAL" : 13
                    },
                    "indices" : 14,
                    "material" : 4
                }
            ]
        },
        {
            "name" : "ObjectMesh.035",
            "primitives" : [
                {
                    "attributes" : {
                        "POSITION" : 15,
                        "NORMAL" : 16
                    },
                    "indices" : 17,
                    "material" : 5
                }
            ]
        },
        {
            "name" : "ObjectMesh.036",
            "primitives" : [
                {
                    "attributes" : {
                        "POSITION" : 18,
                        "NORMAL" : 19
                    },
                    "indices" : 20,
                    "material" : 6
                }
            ]
        },
        {
            "name" : "ObjectMesh.037",
            "primitives" : [
                {
                    "attributes" : {
                        "POSITION" : 21,
                        "NORMAL" : 22
                    },
                    "indices" : 20,
                    "material" : 7
                }
            ]
        },
        {
            "name" : "ObjectMesh.039",
            "primitives" : [
                {
                    "attributes" : {
                        "POSITION" : 23,
                        "NORMAL" : 24
                    },
                    "indices" : 25,
                    "material" : 8
                }
            ]
        }
    ],
    "accessors" : [
        {
            "bufferView" : 0,
            "componentType" : 5126,
            "count" : 88224,
            "max" : [
                5.045000076293945,
                0.1723838448524475,
                3.226818323135376
            ],
            "min" : [
                -5.045000076293945,
                -7.450580596923828e-09,
                -3.226818323135376
            ],
            "type" : "VEC3"
        },
        {
            "bufferView" : 1,
            "componentType" : 5126,
            "count" : 88224,
            "type" : "VEC3"
        },
        {
            "bufferView" : 2,
            "componentType" : 5125,
            "count" : 132336,
            "type" : "SCALAR"
        },
        {
            "bufferView" : 3,
            "componentType" : 5126,
            "count" : 3072,
            "max" : [
                3.9338889122009277,
                0.2617860436439514,
                2.7217676639556885
            ],
            "min" : [
                -4.438939571380615,
                -1.4901161193847656e-08,
                -2.3177273273468018
            ],
            "type" : "VEC3"
        },
        {
            "bufferView" : 4,
            "componentType" : 5126,
            "count" : 3072,
            "type" : "VEC3"
        },
        {
            "bufferView" : 5,
            "componentType" : 5123,
            "count" : 4608,
            "type" : "SCALAR"
        },
        {
            "bufferView" : 6,
            "componentType" : 5126,
            "count" : 1032,
            "max" : [
                3.3278284072875977,
                0.36784473061561584,
                2.519747495651245
            ],
            "min" : [
                -4.438939571380615,
                -2.9802322387695312e-08,
                -2.1157071590423584
            ],
            "type" : "VEC3"
        },
        {
            "bufferView" : 7,
            "componentType" : 5126,
            "count" : 1032,
            "type" : "VEC3"
        },
        {
            "bufferView" : 8,
            "componentType" : 5123,
            "count" : 1548,
            "type" : "SCALAR"
        },
        {
            "bufferView" : 9,
            "componentType" : 5126,
            "count" : 264,
            "max" : [
                3.4288384914398193,
                0.4752047061920166,
                2.519747495651245
            ],
            "min" : [
                -4.3379292488098145,
                -1.4901161193847656e-08,
                -2.1157071590423584
            ],
            "type" : "VEC3"
        },
        {
            "bufferView" : 10,
            "componentType" : 5126,
            "count" : 264,
            "type" : "VEC3"
        },
        {
            "bufferView" : 11,
            "componentType" : 5123,
            "count" : 396,
            "type" : "SCALAR"
        },
        {
            "bufferView" : 12,
            "componentType" : 5126,
            "count" : 240,
            "max" : [
                3.4288384914398193,
                0.6208613514900208,
                0.8025757670402527
            ],
            "min" : [
                -4.438939571380615,
                -2.9802322387695312e-08,
                -1.7116665840148926
            ],
            "type" : "VEC3"
        },
        {
            "bufferView" : 13,
            "componentType" : 5126,
            "count" : 240,
            "type" : "VEC3"
        },
        {
            "bufferView" : 14,
            "componentType" : 5123,
            "count" : 360,
            "type" : "SCALAR"
        },
        {
            "bufferView" : 15,
            "componentType" : 5126,
            "count" : 72,
            "max" : [
                2.4187374114990234,
                0.7194614410400391,
                2.1157071590423584
            ],
            "min" : [
                -0.701565682888031,
                -2.9802322387695312e-08,
                -0.6005555987358093
            ],
            "type" : "VEC3"
        },
        {
            "bufferView" : 16,
            "componentType" : 5126,
            "count" : 72,
            "type" : "VEC3"
        },
        {
            "bufferView" : 17,
            "componentType" : 5123,
            "count" : 108,
            "type" : "SCALAR"
        },
        {
            "bufferView" : 18,
            "componentType" : 5126,
            "count" : 24,
            "max" : [
                -0.5105555653572083,
                0.8120376467704773,
                -0.7125757336616516
            ],
            "min" : [
                -0.6005555987358093,
                0,
                -0.8025757670402527
            ],
            "type" : "VEC3"
        },
        {
            "bufferView" : 19,
            "componentType" : 5126,
            "count" : 24,
            "type" : "VEC3"
        },
        {
            "bufferView" : 20,
            "componentType" : 5123,
            "count" : 36,
            "type" : "SCALAR"
        },
        {
            "bufferView" : 21,
            "componentType" : 5126,
            "count" : 24,
            "max" : [
                -0.5105555653572083,
                1.0467393398284912,
                -0.6115656495094299
            ],
            "min" : [
                -0.6005555987358093,
                0,
                -0.701565682888031
            ],
            "type" : "VEC3"
        },
        {
            "bufferView" : 22,
            "componentType" : 5126,
            "count" : 24,
            "type" : "VEC3"
        },
        {
            "bufferView" : 23,
            "componentType" : 5126,
            "count" : 48,
            "max" : [
                -0.6115656495094299,
                4,
                -0.6115656495094299
            ],
            "min" : [
                -0.701565682888031,
                -5.960464477539063e-08,
                -0.8025757670402527
            ],
            "type" : "VEC3"
        },
        {
            "bufferView" : 24,
            "componentType" : 5126,
            "count" : 48,
            "type" : "VEC3"
        },
        {
            "bufferView" : 25,
            "componentType" : 5123,
            "count" : 72,
            "type" : "SCALAR"
        }
    ],
    "bufferViews" : [
        {
            "buffer" : 0,
            "byteLength" : 1058688,
            "byteOffset" : 0
        },
        {
            "buffer" : 0,
            "byteLength" : 1058688,
            "byteOffset" : 1058688
        },
        {
            "buffer" : 0,
            "byteLength" : 529344,
            "byteOffset" : 2117376
        },
        {
            "buffer" : 0,
            "byteLength" : 36864,
            "byteOffset" : 2646720
        },
        {
            "buffer" : 0,
            "byteLength" : 36864,
            "byteOffset" : 2683584
        },
        {
            "buffer" : 0,
            "byteLength" : 9216,
            "byteOffset" : 2720448
        },
        {
            "buffer" : 0,
            "byteLength" : 12384,
            "byteOffset" : 2729664
        },
        {
            "buffer" : 0,
            "byteLength" : 12384,
            "byteOffset" : 2742048
        },
        {
            "buffer" : 0,
            "byteLength" : 3096,
            "byteOffset" : 2754432
        },
        {
            "buffer" : 0,
            "byteLength" : 3168,
            "byteOffset" : 2757528
        },
        {
            "buffer" : 0,
            "byteLength" : 3168,
            "byteOffset" : 2760696
        },
        {
            "buffer" : 0,
            "byteLength" : 792,
            "byteOffset" : 2763864
        },
        {
            "buffer" : 0,
            "byteLength" : 2880,
            "byteOffset" : 2764656
        },
        {
            "buffer" : 0,
            "byteLength" : 2880,
            "byteOffset" : 2767536
        },
        {
            "buffer" : 0,
            "byteLength" : 720,
            "byteOffset" : 2770416
        },
        {
            "buffer" : 0,
            "byteLength" : 864,
            "byteOffset" : 2771136
        },
        {
            "buffer" : 0,
            "byteLength" : 864,
            "byteOffset" : 2772000
        },
        {
            "buffer" : 0,
            "byteLength" : 216,
            "byteOffset" : 2772864
        },
        {
            "buffer" : 0,
            "byteLength" : 288,
            "byteOffset" : 2773080
        },
        {
            "buffer" : 0,
            "byteLength" : 288,
            "byteOffset" : 2773368
        },
        {
            "buffer" : 0,
            "byteLength" : 72,
            "byteOffset" : 2773656
        },
        {
            "buffer" : 0,
            "byteLength" : 288,
            "byteOffset" : 2773728
        },
        {
            "buffer" : 0,
            "byteLength" : 288,
            "byteOffset" : 2774016
        },
        {
            "buffer" : 0,
            "byteLength" : 576,
            "byteOffset" : 2774304
        },
        {
            "buffer" : 0,
            "byteLength" : 576,
            "byteOffset" : 2774880
        },
        {
            "buffer" : 0,
            "byteLength" : 144,
            "byteOffset" : 2775456
        }
    ],
    "buffers" : [
        {
            "byteLength" : 2775600,
            "uri" : "data:application/octet-stream;base64,"
        }
    ]
}
