{
    "asset" : {
        "generator" : "Khronos glTF Blender I/O v1.8.19",
        "version" : "2.0"
    },
    "scene" : 0,
    "scenes" : [
        {
            "name" : "Scene",
            "nodes" : [
                0
            ]
        }
    ],
    "nodes" : [
        {
            "mesh" : 0,
            "name" : "OVT_mesh_sketchfab"
        }
    ],
    "meshes" : [
        {
            "name" : "OVT_mesh_sketchfab",
            "primitives" : [
                {
                    "attributes" : {
                        "POSITION" : 0,
                        "NORMAL" : 1
                    },
                    "indices" : 2
                }
            ]
        }
    ],
    "accessors" : [
        {
            "bufferView" : 0,
            "componentType" : 5126,
            "count" : 17094,
            "max" : [
                9.175552368164062,
                43.97895050048828,
                32.69480895996094
            ],
            "min" : [
                -108.56065368652344,
                6.624630451202393,
                -36.24884796142578
            ],
            "type" : "VEC3"
        },
        {
            "bufferView" : 1,
            "componentType" : 5126,
            "count" : 17094,
            "type" : "VEC3"
        },
        {
            "bufferView" : 2,
            "componentType" : 5123,
            "count" : 17094,
            "type" : "SCALAR"
        }
    ],
    "bufferViews" : [
        {
            "buffer" : 0,
            "byteLength" : 205128,
            "byteOffset" : 0
        },
        {
            "buffer" : 0,
            "byteLength" : 205128,
            "byteOffset" : 205128
        },
        {
            "buffer" : 0,
            "byteLength" : 34188,
            "byteOffset" : 410256
        }
    ],
    "buffers" : [
        {
            "byteLength" : 444444,
            "uri" : "data:application/octet-stream;base64,"
        }
    ]
}
